{
	"accessors":[{
		"bufferView":0,
		"type":"SCALAR",
		"componentType":5123,
		"count":53487,
		"byteOffset":0,
		"min":[0],
		"max":[50432]
	},
	{
		"bufferView":1,
		"type":"VEC3",
		"componentType":5126,
		"count":50433,
		"byteOffset":0,
		"min":[-1.3315012454986573,
		-0.5674816370010376,
		-0.6173986792564392],
		"max":[1.3005833625793458,
		0.6902015805244446,
		0.8178030848503113]
	},
	{
		"bufferView":1,
		"type":"VEC3",
		"componentType":5126,
		"count":50433,
		"byteOffset":12,
		"min":[-0.9998750686645508,
		-0.9999688267707825,
		-0.9999688267707825],
		"max":[0.9999688267707825,
		0.9999688267707825,
		0.9999688267707825]
	},
	{
		"bufferView":1,
		"type":"VEC2",
		"componentType":5126,
		"count":50433,
		"byteOffset":24,
		"min":[0.00014800000644754618,
		0.000420987606048584],
		"max":[0.9750379323959351,
		1.0]
	}],
	"asset":{
		"version":"2.0",
		"generator":"Created using the official Cinema 4D glTF Exporter 1.000x284978"
	},
	"textures":[{
		"sampler":0,
		"source":0
	}],
	"scenes":[{
		"nodes":[0]
	}],
	"nodes":[{
		"name":"sandwitch",
		"mesh":0
	}],
	"samplers":[{
		"magFilter":9729,
		"minFilter":9729,
		"wrapS":10497,
		"wrapT":10497
	}],
	"meshes":[{
		"name":"sandwitch",
		"primitives":[{
			"attributes":{
				"POSITION":1,
				"NORMAL":2,
				"TEXCOORD_0":3
			},
			"indices":0,
			"material":0
		}]
	}],
	"bufferViews":[{
		"buffer":0,
		"byteOffset":0,
		"byteLength":106974,
		"target":34963
	},
	{
		"buffer":0,
		"byteOffset":106976,
		"byteLength":1613856,
		"target":34962,
		"byteStride":32
	}],
	"buffers":[{
		"uri":"data:application/octet-stream;base64,",
		"byteLength":1720832
	}],
	"images":[{
		"uri":"data:image/jpeg;base64,"
	}],
	"materials":[{
		"pbrMetallicRoughness":{
			"baseColorTexture":{
				"index":0
			},
			"baseColorFactor":[1.0,
			1.0,
			1.0,
			1.0],
			"metallicFactor":0.0,
			"roughnessFactor":0.5
		},
		"emissiveFactor":[0.0,
		0.0,
		0.0],
		"alphaMode":"OPAQUE",
		"doubleSided":false,
		"name":"default"
	}]
}